<svg xmlns="http://www.w3.org/2000/svg" width="64" height="64" viewBox="0 0 64 64" fill="none">
	<rect width="64" height="64" rx="18" fill="#161A22" />
	<path
		d="M25.534 18.5C22.598 18.5 20.396 21.144 20.396 24.372C20.396 27.307 21.57 29.509 22.598 32.444C23.626 35.379 24.067 38.313 24.801 41.982C25.241 44.184 26.269 44.918 27.443 44.918C28.618 44.918 29.205 43.744 29.645 41.982C30.232 39.779 30.526 38.313 31.407 38.313C32.289 38.313 32.582 39.779 33.17 41.982C33.61 43.744 34.197 44.918 35.372 44.918C36.546 44.918 37.574 44.184 38.014 41.982C38.748 38.313 39.189 35.379 40.217 32.444C41.244 29.509 42.419 27.307 42.419 24.372C42.419 21.144 40.07 18.5 37.281 18.5C36.106 18.5 35.078 18.94 34.344 19.674C33.61 18.94 32.582 18.5 31.407 18.5C30.232 18.5 29.205 18.94 28.471 19.674C27.736 18.94 26.709 18.5 25.534 18.5Z"
		fill="#E49545"
	/>
	<path
		d="M45.5 24.5C47.107 26.205 48 28.484 48 31C48 33.516 47.107 35.795 45.5 37.5"
		stroke="#E49545"
		stroke-width="2.4"
		stroke-linecap="round"
		opacity="0.8"
	/>
	<path
		d="M49.5 20.75C52.044 23.554 53.5 27.126 53.5 31C53.5 34.874 52.044 38.446 49.5 41.25"
		stroke="#E49545"
		stroke-width="2.2"
		stroke-linecap="round"
		opacity="0.45"
	/>
</svg>